<?xml version="1.0" standalone="no"?>
<!DOCTYPE svg PUBLIC "-//W3C//DTD SVG 20010904//EN"
 "http://www.w3.org/TR/2001/REC-SVG-20010904/DTD/svg10.dtd">
<svg version="1.0" xmlns="http://www.w3.org/2000/svg"
 width="260.000000pt" height="260.000000pt" viewBox="0 0 260.000000 260.000000"
 preserveAspectRatio="xMidYMid meet">
<metadata>
Created by potrace 1.11, written by Peter Selinger 2001-2013
</metadata>
<g transform="translate(0.000000,260.000000) scale(0.100000,-0.100000)"
fill="#000000" stroke="none">
<path d="M1713 2135 c-129 -28 -212 -82 -274 -178 -78 -120 -106 -260 -116
-563 -9 -324 16 -533 81 -669 43 -92 81 -134 155 -174 83 -44 172 -61 326 -61
286 0 421 80 502 296 23 60 27 89 31 222 l4 152 -199 0 -200 0 -6 -130 c-9
-166 -28 -227 -78 -254 -32 -18 -41 -18 -78 -8 -84 26 -100 90 -108 442 -6
309 6 518 36 585 37 84 139 100 186 29 18 -27 35 -134 35 -221 l0 -63 200 0
200 0 0 98 c-1 282 -117 449 -349 498 -82 17 -266 17 -348 -1z"/>
<path d="M690 1508 c0 -337 -4 -630 -9 -651 -17 -73 -81 -113 -138 -85 -44 21
-62 65 -69 166 l-7 92 -190 0 -189 0 7 -82 c4 -46 11 -102 16 -125 38 -179
145 -288 318 -324 86 -18 311 -7 391 19 166 54 252 165 280 364 5 34 10 327
10 651 l0 587 -210 0 -210 0 0 -612z"/>
</g>
</svg>
